<?xml version="1.0" standalone="no"?><!DOCTYPE svg PUBLIC "-//W3C//DTD SVG 1.1//EN" "http://www.w3.org/Graphics/SVG/1.1/DTD/svg11.dtd"><svg t="1565503917192" class="icon" viewBox="0 0 1024 1024" version="1.1" xmlns="http://www.w3.org/2000/svg" p-id="11410" width="16" height="16" xmlns:xlink="http://www.w3.org/1999/xlink"><defs><style type="text/css"></style></defs><path d="M60.437071 281.685755A57.98692 57.98692 0 0 1 86.572021 236.847982L485.130005 6.207051a58.313607 58.313607 0 0 1 52.269899 0L936.447918 236.847982a57.98692 57.98692 0 0 1 26.13495 45.246132v460.138459a57.98692 57.98692 0 0 1-26.13495 45.246132l-398.802999 230.314244a58.313607 58.313607 0 0 1-52.269899 0L86.572021 787.478705A57.98692 57.98692 0 0 1 60.437071 742.232573z" fill="#FFB421" p-id="11411" data-spm-anchor-id="a313x.7781069.0.i16" class=""></path><path d="M345.798054 360.417291l5.22699-5.472005 2.940182-3.021853 6.043707-5.71702 0.571702-0.490031-2.123465-2.205136-4.246929 4.246929L343.021216 359.355559l2.205136 2.123465z m227.455734 40.835859c2.041793 1.143404 4.083586 2.36848 5.962036 3.593556l1.388419 0.898389a122.507577 122.507577 0 0 1 13.31249 9.96395l1.306748 1.061732c2.041793 1.87845 4.083586 3.756899 6.043707 5.71702s3.838571 4.001914 5.71702 6.043707l1.061732 1.225076a132.389855 132.389855 0 0 1 9.96395 13.394162l0.898389 1.388419c1.225076 1.960121 2.450152 3.920242 3.593555 5.962035l22.541395-22.623066 34.383793-34.302121-2.205137-3.103525-2.613495-3.348541c-2.695167-3.511884-5.553677-7.023768-8.167171-10.372308-1.306747-1.551763-2.695167-3.021854-4.001914-4.491944l-3.021854-3.103526-4.328601-4.410273c-3.920242-3.756899-8.167172-7.432126-12.169086-10.94401l-1.143404-0.898389c-2.286808-1.87845-4.73696-3.756899-7.187111-5.635348l-2.613495-1.87845-1.470091-1.061732-34.383793 34.302122z m-61.743818 218.798533a107.724996 107.724996 0 0 0 39.529111-7.513798l2.695167-1.061733 3.920242-1.796777 0.980061-0.490031 4.328601-2.205136c2.695167-1.470091 5.390333-3.103525 8.167172-4.818631l0.816717-0.571702c1.306747-0.816717 2.613495-1.796778 3.920242-2.695167h0.490031q3.675227-2.776838 7.105439-5.880364l0.735046-0.653374 3.34854-3.185197 0.571702-0.571702c2.123465-2.205136 4.165258-4.410273 6.125379-6.778752l0.571702-0.735046a44.592758 44.592758 0 0 0 2.940182-3.675227l0.571702-0.735045A114.340405 114.340405 0 0 0 607.637582 561.411389l0.49003-1.061732 1.306748-2.695167q0.980061-1.960121 1.715106-3.675227l0.98006-2.450151a107.724996 107.724996 0 0 0 0-79.058224c0-0.735045-0.49003-1.306747-0.735045-1.796777a104.866486 104.866486 0 0 0-7.10544-14.210879v-0.653374c-0.816717-1.388419-1.715106-2.695167-2.613495-4.083586a2.041793 2.041793 0 0 1 0-0.571702c-1.796778-2.531823-3.593556-5.063647-5.553676-7.432126l-0.490031-0.571702-4.328601-3.675228v-0.571702c-1.960121-2.205136-4.083586-4.246929-6.20705-6.288722l-0.898389-0.816717-3.430212-2.940182-1.061733-0.898389c-2.041793-1.633434-4.246929-3.266869-6.452066-4.818631l-1.388419-0.980061-3.675227-2.286808-1.633434-0.98006c-1.551763-0.980061-3.185197-1.87845-4.818632-2.695167h-0.735045l-3.185197-1.633435-3.756899-1.715106-2.695167-1.061732a107.724996 107.724996 0 0 0-79.058223 0l-2.695167 1.061732-3.756899 1.715106-3.103525 1.551763h-0.735045l-4.001915 2.205136-3.430212 2.041793-3.756899 2.531824-4.083586 2.85851-3.185197 2.531823c-1.061732 0.898389-2.205136 1.796778-3.266868 2.85851s-2.695167 2.36848-3.920243 3.593556l-2.36848 2.36848c-1.388419 1.470091-2.85851 3.021854-4.246929 4.655288l-2.041793 2.450151-3.430212 4.491945c-0.816717 1.143404-1.633434 2.286808-2.286808 3.34854s-1.551763 2.286808-2.286808 3.511884-1.633434 2.695167-2.36848 4.083586-1.551763 2.776838-2.286808 4.246929-1.061732 2.36848-1.633435 3.593556a107.970011 107.970011 0 0 0 98.006062 152.562769z m158.116446-267.474876l1.388419 1.388419c2.123465 2.123465 4.246929 4.328601 6.288722 6.533737l0.49003 0.571702 2.205137-2.123464L664.807784 343.511246l-2.205136 2.205136a1.470091 1.470091 0 0 1 0.571702 0.408359zM400.518105 573.662147L377.895039 596.203541l-34.302121 34.383794 2.041792 2.940181 3.675228 4.73696a204.750997 204.750997 0 0 0 37.323975 36.915617l3.103525 2.450151 3.103525 2.123465L427.143085 645.206572l22.623066-22.623066-2.36848-1.306747-2.531823-1.551763-2.531823-1.633434-2.450152-1.633435-2.450152-1.715106-2.368479-1.715106-2.36848-1.878449c-0.653374-0.49003-1.470091-1.061732-2.286808-1.796778l-2.450152-1.715106a19.437869 19.437869 0 0 1-2.205136-1.87845l-2.36848-2.205136-3.593556-3.756899-2.205136-2.205137-1.960121-2.368479-1.87845-2.123465-1.960121-2.450152-1.715106-2.205136-1.87845-2.613495c-0.49003-0.571702-0.980061-1.306747-1.551762-2.123465l-1.796778-2.776838a25.808263 25.808263 0 0 1-1.470091-2.205136l-1.633434-2.858511c-0.326687-0.653374-0.816717-1.388419-1.225076-2.205136z m-44.67443-196.012123c-2.450152 2.776838-4.73696 5.635349-7.023768 8.167172l-3.103525 4.001914c-0.653374 0.898389-1.306747 1.960121-2.123464 3.021853l34.302121 34.302122 22.623066 22.623066c1.470091-2.776838 3.185197-5.553677 4.900303-8.167172 1.796778-2.613495 3.593556-5.22699 5.553677-7.677141a12.005743 12.005743 0 0 0 0.816717-1.061733c1.960121-2.36848 3.920242-4.73696 6.043707-7.023767l0.735046-0.816718c2.123465-2.205136 4.410273-4.491944 6.615409-6.533737 2.36848-2.123465 4.818631-4.165258 7.187111-6.043707l1.143404-0.898389c2.450152-1.87845 4.981975-3.675227 7.513798-5.308662l1.061732-0.735045c2.286808-1.470091 4.573616-2.85851 7.023768-4.24693l-27.931727-27.931727-28.340087-29.238475c-1.143404 0.816717-2.205136 1.470091-3.103525 2.205136l-3.920242 3.021854a191.520179 191.520179 0 0 0-15.762642 13.557505c-1.960121 1.796778-3.838571 3.593556-5.635348 5.472005s-2.613495 2.695167-3.838571 4.083586-3.185197 3.266869-4.73696 5.308662z m4.73696 300.551922l-0.653374-0.326687-4.981975-4.736959-4.736959-4.73696-3.920243-4.818631-0.653374-0.653374-2.205136 2.123464 15.435955 15.354283z m334.118998-331.260488L697.476472 351.188387l0.98006 2.36848a16.824374 16.824374 0 0 1 0.980061 5.71702v5.063647a16.334344 16.334344 0 0 1-4.328601 7.268783l-4.410273 4.491944c3.266869 4.328601 6.452066 8.820546 9.473919 13.394162l4.410273 6.697081A224.107194 224.107194 0 0 1 703.030148 628.872228l-2.695166 4.165258-0.735046 1.143404c-0.653374 1.061732-1.306747 1.87845-1.633434 2.450152-2.531823 3.756899-5.22699 7.513798-8.167172 11.189025l4.491945 4.491944a17.232732 17.232732 0 0 1 5.063646 12.250758V669.708087h-0.735045a18.53948 18.53948 0 0 1-4.328601 7.268783l-17.477748 17.477748a17.559419 17.559419 0 0 1-24.501516 0l-4.410272-4.410273c-4.328601 3.266869-8.738874 6.370394-13.31249 9.392248l-6.288723 4.655288v-0.408359a223.535492 223.535492 0 0 1-116.300526 32.668687 223.127134 223.127134 0 0 1-115.565481-32.096985l-5.71702-3.838571-0.980061-0.571702-2.85851-1.960121c-3.593556-2.450152-7.187111-4.981975-10.698995-7.59547l-4.491944 4.410273a17.396076 17.396076 0 0 1-24.011486 0.49003l274.253629 274.253629 315.497847-182.127931a57.98692 57.98692 0 0 0 26.13495-45.246131V614.824693z m22.459723 165.058542a204.91434 204.91434 0 0 0-27.278354-102.416334L658.43739 441.027277l-27.60504 27.605041a126.346148 126.346148 0 0 1 0 86.735364l27.60504 27.605041 31.443612 31.36194a204.669325 204.669325 0 0 0 27.278354-102.334663zM468.142287 392.67762a126.346148 126.346148 0 0 1 86.735365 0l27.605041-27.605041 31.361939-31.443611a205.731058 205.731058 0 0 0-204.750997 0l31.443612 31.443611z m145.784017 297.693412l-31.443611-31.443611-27.605041-27.605041a127.571223 127.571223 0 0 1-86.735365 0l-27.60504 27.605041-31.443612 31.443611a205.894401 205.894401 0 0 0 204.832669 0zM392.18759 555.367682a126.346148 126.346148 0 0 1 0-86.735364L364.582549 441.027277l-31.443611-31.443611a205.731058 205.731058 0 0 0 0 204.750997l31.443611-31.36194z m241.013239 122.507577l3.185197-2.450151a204.179295 204.179295 0 0 0 38.46738-38.385708l2.368479-3.103525 2.205137-3.103525L645.043229 596.203541l-22.541395-22.623066q-0.980061 1.87845-1.960121 3.430213l-0.735045 1.143404-2.205137 3.34854-0.653373 1.061732c-1.470091 2.205136-3.021854 4.328601-4.655288 6.452066l-1.143404 1.470091-4.491945 5.308662-0.735045 0.816717q-2.531823 2.940182-5.390334 5.635348l-1.388419 1.306748-4.73696 4.246929-1.306747 1.143404-6.043707 4.818632-1.470091 0.98006c-1.633434 1.225076-3.34854 2.36848-5.145318 3.511884l-1.87845 1.225076-5.145318 3.103525L595.795183 645.206572l34.302121 34.302122z m46.797895-12.659116l-2.205137-2.123465-0.571702 0.571702-5.063646 5.308662-1.796778 1.878449-1.715106 1.633435-5.472005 5.22699-0.571702 0.571702 2.123465 2.123464z" fill="#FFB421" p-id="11412" data-spm-anchor-id="a313x.7781069.0.i17" class=""></path><path d="M736.107194 512a223.617164 223.617164 0 0 0-32.668687-115.892168l-4.410273-6.697081c-3.021854-4.573616-6.207051-9.065561-9.473919-13.394161l4.410273-4.491945a16.334344 16.334344 0 0 0 4.328601-7.268783v-5.063646a16.824374 16.824374 0 0 0-0.980061-5.717021L697.476472 351.188387l-2.776839-3.83857-5.390333-6.125379-12.414101-12.087415a17.314404 17.314404 0 0 0-24.501516 0l-4.410273 4.410273q-6.615409-5.063647-13.475833-9.555591l-1.388419-0.898389-4.818632-3.103525a223.780507 223.780507 0 0 0-116.545541-32.668687h-7.840485A224.107194 224.107194 0 0 0 395.291115 319.826448l-6.452066 4.246929c-4.491944 2.940182-8.902217 6.125379-13.230818 9.392248L370.7896 329.137023a17.477748 17.477748 0 0 0-24.501516 0l-0.49003 0.571702-16.906046 16.906046a17.232732 17.232732 0 0 0-5.145318 11.760727V359.355559a17.641091 17.641091 0 0 0 5.145318 11.842399l4.410273 4.491945q-4.900303 6.370394-9.310576 13.230818l-0.816717 1.225076-3.593556 5.472005a224.107194 224.107194 0 0 0 0 231.947679l4.410273 6.697081c3.021854 4.573616 6.125379 8.983889 9.392248 13.31249l-4.410273 4.410273a17.559419 17.559419 0 0 0-5.145318 11.760727v1.061732a17.804435 17.804435 0 0 0 5.145318 11.842399L346.288084 694.862977a17.069389 17.069389 0 0 0 12.33243 5.063646 17.559419 17.559419 0 0 0 12.250757-5.063646l4.491945-4.410273c3.511884 2.613495 7.105439 5.145318 10.698995 7.59547l2.85851 1.960121 0.980061 0.571702 5.71702 3.838571a223.127134 223.127134 0 0 0 115.565481 32.096985 223.535492 223.535492 0 0 0 116.300526-32.668687v0.408358l6.288723-4.655288c4.573616-3.021854 8.983889-6.125379 13.31249-9.392247l4.410272 4.410272a17.559419 17.559419 0 0 0 24.501516 0l17.477747-17.477747a18.53948 18.53948 0 0 0 4.328601-7.268783h0.735046v-4.655288a17.232732 17.232732 0 0 0-5.063647-12.250758l-4.491944-4.491944c2.776838-3.675227 5.472005-7.432126 8.167172-11.189026 0-0.571702 0.980061-1.388419 1.633434-2.450151l0.735045-1.143404 2.695167-4.165258a223.372149 223.372149 0 0 0 33.893763-117.525602zM663.011007 677.875259l5.472005-5.22699 1.715106-1.633434 1.796778-1.87845 5.063646-5.308661 0.571702-0.571702 2.205136 2.123464L664.807784 680.407082l-2.123464-2.123464z m-26.624981-2.450151l-3.185197 2.450151-3.103525 2.123465-34.302121-34.792152-22.541395-22.541394 5.145319-3.103525 1.878449-1.225076c1.796778-1.143404 3.511884-2.286808 5.145318-3.511884l1.470091-0.980061 6.043708-4.818631 1.306747-1.143404 4.73696-4.246929 1.388419-1.306748q2.85851-2.695167 5.390333-5.635348c0.49003-0.49003 0.653374-0.816717 0.735046-0.816718l4.491944-5.308661 1.143404-1.470091c1.633434-2.123465 3.185197-4.246929 4.655288-6.452066l0.653374-1.061732 2.205136-3.348541 0.735046-1.143404q0.980061-1.551763 1.960121-3.430212L645.043229 596.203541l34.383793 34.302122-2.205137 3.103525-2.368479 3.103525a204.179295 204.179295 0 0 1-38.46738 38.549051z m-124.876056 42.224278a204.91434 204.91434 0 0 1-102.416335-27.278354l31.443612-31.443611 27.60504-27.605041a127.571223 127.571223 0 0 0 86.735365 0l27.605041 27.605041 31.443611 31.443611a205.159356 205.159356 0 0 1-102.416334 27.278354z m-162.200032-79.303238l-3.675228-4.73696-2.041792-2.940182 34.302121-34.465465 22.623066-22.623066c0 0.816717 0.898389 1.551763 1.306747 2.205137l1.633435 2.85851a25.808263 25.808263 0 0 0 1.470091 2.205136l1.796778 2.776839c0.571702 0.816717 1.061732 1.551763 1.551762 2.123464l1.87845 2.613495 1.715106 2.205137 1.960121 2.450151 1.87845 2.123465 1.960121 2.36848 2.205136 2.205136 3.675227 3.756899 2.36848 2.205137a19.437869 19.437869 0 0 0 2.205137 1.878449l2.286808 2.041793c0.816717 0.735045 1.633434 1.306747 2.286808 1.796778l2.36848 1.878449 2.368479 1.715106 2.450152 1.715106 2.450152 1.633435 2.531823 1.633434 2.531823 1.551763 2.36848 1.306747L427.143085 645.206572l-34.302122 34.302122-3.103525-1.633435-3.103525-2.450151a204.750997 204.750997 0 0 1-37.323975-37.07896z m9.147232 42.060934l-15.435954-15.354283 2.205136-2.123464 0.653374 0.653374 4.328601 4.655287 4.736959 4.73696 4.981975 4.73696 0.653374 0.571702zM354.455256 347.758175l4.246929-4.246929 2.123465 2.205136-0.571702 0.490031-6.043707 5.71702-2.940182 3.021853-5.22699 5.472005-0.571702 0.653374-2.450151-1.715106z m31.606955 1.551763l3.920242-3.021854c0.898389-0.735045 1.960121-1.388419 3.103526-2.205136l28.99346 28.99346 27.931727 27.931727c-2.450152 1.388419-4.73696 2.776838-7.023768 4.24693l-1.061732 0.735045c-2.531823 1.633434-5.063647 3.430212-7.513798 5.308662l-1.143404 0.898389c-2.36848 1.87845-4.818631 3.920242-7.187111 6.043707-2.205136 2.041793-4.491944 4.328601-6.615409 6.533737l-0.735046 0.816717c-2.123465 2.286808-4.083586 4.655288-6.043707 7.023768a12.005743 12.005743 0 0 1-0.816717 1.061732c-1.960121 2.450152-3.756899 5.063647-5.553677 7.677142 0 0 0 0.49003 0 0-1.715106 2.695167-3.430212 5.472005-4.900303 8.167172l-22.623066-22.623066-34.302122-34.302122c0.816717-1.061732 1.470091-2.123465 2.123465-3.021853l3.103525-4.001914c2.286808-2.940182 4.573616-5.798692 7.023768-8.167172s3.103525-3.593556 4.73696-5.308662 2.531823-2.695167 3.838571-4.083586 3.675227-3.675227 5.635348-5.472005a191.520179 191.520179 0 0 1 14.864253-13.230818z m125.692774-42.959324a204.179295 204.179295 0 0 1 102.334662 27.278354l-31.606954 31.443611-27.605041 27.605041a126.346148 126.346148 0 0 0-86.735365 0l-27.60504-27.605041-31.443612-31.443611a204.179295 204.179295 0 0 1 102.416335-27.278354z m122.507577 40.835859c2.450152 1.87845 4.900303 3.756899 7.187111 5.635349l1.143404 0.898389c4.165258 3.511884 8.167172 7.187111 12.169086 10.94401l4.328601 4.410273 3.021854 3.103525c1.306747 1.470091 2.695167 2.940182 4.001914 4.491944 2.940182 3.34854 5.798692 6.860424 8.167172 10.372308l2.613495 3.348541 2.205136 3.103525-34.383793 34.302122-22.541394 22.623066c-1.143404-2.041793-2.36848-4.001914-3.593556-5.962036l-0.898389-1.388419a132.389855 132.389855 0 0 0-9.96395-13.394162l-1.061732-1.225075c-1.87845-2.041793-3.756899-4.083586-5.71702-6.043708s-4.001914-3.838571-6.043707-5.71702l-1.306748-1.061732a122.507577 122.507577 0 0 0-13.31249-9.96395l-1.388419-0.898389c-1.87845-1.225076-3.920242-2.450152-5.962035-3.593555l22.541394-22.623066 34.383793-34.302122 1.470091 1.061733z m30.545222-3.675227L679.998724 359.355559l-2.205137 2.123465-0.49003-0.571702c-2.041793-2.205136-4.165258-4.410273-6.288722-6.533738l-1.388419-1.388419-6.697081-6.452066a1.470091 1.470091 0 0 0-0.571702-0.408358zM553.734248 611.476152l-2.695167 1.061733a107.970011 107.970011 0 0 1-137.943531-145.048971c0.571702-1.225076 1.061732-2.450152 1.633434-3.593556s1.470091-2.85851 2.286808-4.246929 1.551763-2.776838 2.36848-4.083586 1.470091-2.36848 2.286808-3.511884 1.470091-2.205136 2.286808-3.34854l3.430212-4.491945 2.041793-2.450151c1.388419-1.633434 2.85851-3.185197 4.246929-4.655288l2.36848-2.36848c1.225076-1.225076 2.531823-2.450152 3.920243-3.593556s2.205136-1.960121 3.266868-2.85851l3.185197-2.531823 4.083586-2.85851 3.756899-2.531824 3.430213-2.041793 4.001914-2.205136h0.735045l3.103525-1.551763 3.756899-1.715106 2.695167-1.061732a107.724996 107.724996 0 0 1 79.058223 0l2.695167 1.061732 3.756899 1.715106 3.185197 1.633435h0.735045c1.633434 0.816717 3.266869 1.715106 4.818632 2.695167l1.633434 0.98006 3.675227 2.286808 1.38842 0.980061c2.205136 1.551763 4.410273 3.185197 6.452065 4.818631l1.061733 0.898389 3.430212 2.940182 0.898389 0.816717c2.123465 2.041793 4.246929 4.083586 6.20705 6.288722l0.653374 0.571702 3.103525 3.675228 0.490031 0.571702c1.960121 2.36848 3.756899 4.900303 5.553676 7.432126a2.041793 2.041793 0 0 0 0 0.571702c0.898389 1.388419 1.796778 2.695167 2.613495 4.083586v0.653374a104.866486 104.866486 0 0 1 7.10544 14.210879c0 0.49003 0 1.061732 0.735045 1.796777a107.724996 107.724996 0 0 1 0 79.058224l-0.98006 2.450151q-0.735045 1.715106-1.715106 3.675227l-1.306748 2.695167-0.49003 1.061732a114.340405 114.340405 0 0 1-9.065561 14.619238l-0.571702 0.735045a44.592758 44.592758 0 0 1-2.940182 3.675228l-0.571702 0.735045c-1.960121 2.36848-4.001914 4.573616-6.125379 6.778753l-0.571702 0.571702-3.34854 3.185197-0.735046 0.653373q-3.430212 3.103525-7.105439 5.880364h-0.49003c-1.306747 0.898389-2.613495 1.87845-3.920243 2.695167l-0.816717 0.571702c-2.531823 1.715106-5.22699 3.34854-8.167172 4.818631l-4.328601 2.205137-0.98006 0.49003zM364.582549 441.027277l27.605041 27.605041a126.346148 126.346148 0 0 0 0 86.735364l-27.605041 27.605041-31.443611 31.36194a205.731058 205.731058 0 0 1 0-204.750997z m294.018185 141.945446L630.83235 555.367682a126.346148 126.346148 0 0 0 0-86.735364L658.43739 441.027277l31.443612-31.443611a205.731058 205.731058 0 0 1 0 204.750997z" fill="#FFFFFF" p-id="11413"></path></svg>