<?xml version="1.0" standalone="no"?><!DOCTYPE svg PUBLIC "-//W3C//DTD SVG 1.1//EN" "http://www.w3.org/Graphics/SVG/1.1/DTD/svg11.dtd"><svg t="1565420162319" class="icon" viewBox="0 0 1024 1024" version="1.1" xmlns="http://www.w3.org/2000/svg" p-id="6361" xmlns:xlink="http://www.w3.org/1999/xlink" width="16" height="16"><defs><style type="text/css"></style></defs><path d="M512 0a512 512 0 1 0 0 1024A512 512 0 0 0 512 0z m292.224 674.624c-14.656 28.032-258.688 159.36-291.968 159.36S238.912 700.032 220.288 672s-14.656-282.688 0-321.344c9.344-25.344 249.28-160.704 291.968-160.704s274.688 131.328 292.032 158.016c17.344 26.688 14.656 298.688-0.064 326.656zM527.872 444.096c-6.976 16.256-17.408 23.808-12.416 32.256 4.992 8.64 156.032-7.488 161.024-21.504S593.472 323.84 582.528 324.864c-11.072 0.96-12.48 16.128-21.056 35.008-41.984-20.992-190.976-16-225.024 128 120-86.976 192.128-45.504 191.424-43.776zM485.312 579.904c6.976-16.256 17.344-23.744 12.352-32.256-4.992-8.64-155.968 7.488-160.96 21.504s83.008 131.072 94.016 130.048 12.416-16.192 20.992-35.008c60.352 28.16 201.856 16 235.904-128.064-136.064 104.256-203.072 45.504-202.304 43.776z" p-id="6362" fill="#FFB421" data-spm-anchor-id="a313x.7781069.0.i9" class="selected"></path></svg>